HIERARCHY
ROOT Hips
{
	OFFSET	0.00	0.00	0.00
	CHANNELS 6 Xposition Yposition Zposition Zrotation Xrotation Yrotation
	JOINT Spine
	{
		OFFSET	 0.00	0.01	 0.00
		CHANNELS 3 Zrotation Xrotation Yrotation
		JOINT Spine1
		{
			OFFSET	 0.00	 2.45913012437421	 0.00
			CHANNELS 3 Zrotation Xrotation Yrotation
            JOINT Neck
            {
                OFFSET	 0.00	 2.48462964506057	 0.00
                CHANNELS 3 Zrotation Xrotation Yrotation
                JOINT Head
                {
                    OFFSET	 0.00	 0.927524780924562	 0.00
                    CHANNELS 3 Zrotation Xrotation Yrotation
                    End Site 
                    {
                        OFFSET	 0.00	 1.14999962169752	 0.00
                    }
                }
            }
			JOINT LeftShoulder
			{
				OFFSET	 0.00	 2.48462964506057	 0.00
				CHANNELS 3 Zrotation Xrotation Yrotation
				JOINT LeftUpArm
				{
					OFFSET	 0.00	 1.24881979654096	 0.00
					CHANNELS 3 Zrotation Xrotation Yrotation
					JOINT LeftForeArm
					{
						OFFSET	 0.00	2.59758046908119	 0.00
						CHANNELS 3 Zrotation Xrotation Yrotation
						JOINT LeftHand
						{
							OFFSET	 0.00	2.45542024364365	 0.00
							CHANNELS 3 Zrotation Xrotation Yrotation
							JOINT LeftHandThumb 
							{
								OFFSET	 0.00	0.00	 0.00
								CHANNELS 3 Zrotation Xrotation Yrotation
								End Site
								{
									OFFSET	 0.00	0.00	1.00000003353624
								}
							}
							JOINT L_Wrist_End 
							{
								OFFSET	 0.00	0.99999967115358	 0.00
								CHANNELS 3 Zrotation Xrotation Yrotation
								End Site 
								{
									OFFSET	 0.00	 0.00	 0.00
								}
							}
						}
					}
				}
			}
			JOINT RightShoulder
			{
				OFFSET	 0.00	 2.48462964506057	 0.00
				CHANNELS 3 Zrotation Xrotation Yrotation
				JOINT RightUpArm
				{
					OFFSET	 0.00	 1.24881979654096	 0.00
					CHANNELS 3 Zrotation Xrotation Yrotation
					JOINT RightForeArm
					{
						OFFSET	 0.00	2.59758046908119	 0.00
						CHANNELS 3 Zrotation Xrotation Yrotation
						JOINT RightHand
						{
							OFFSET	 0.00	2.45542024364365	 0.00
							CHANNELS 3 Zrotation Xrotation Yrotation
							JOINT RightHandThumb 
							{
								OFFSET	 0.00	0.00	 0.00
								CHANNELS 3 Zrotation Xrotation Yrotation
								End Site
								{
									OFFSET	 0.00	0.00	1.00000003353624
								}
							}
							JOINT R_Wrist_End 
							{
								OFFSET	 0.00	0.99999967115358	 0.00
								CHANNELS 3 Zrotation Xrotation Yrotation
								End Site 
								{
									OFFSET	 0.00	 0.00	 0.00
								}
							}
						}
					}
				}
			}
		}
	}
	JOINT LeftUpLeg
	{
		OFFSET	 1.2719394002717	 0.00	 0.00
		CHANNELS 3 Zrotation Xrotation Yrotation
		JOINT LeftLowLeg
		{
			OFFSET	 0.00	-4.3429100912261	 0.00
			CHANNELS 3 Zrotation Xrotation Yrotation
			JOINT LeftFoot
			{
				OFFSET	 0.00	-4.48767017425826	 0.00
				CHANNELS 3 Zrotation Xrotation Yrotation
				JOINT LeftToeBase
                {
                    OFFSET	 0.00	0.00	 1.51507020887566
                    CHANNELS 3 Zrotation Xrotation Yrotation
                    End Site 
                    {
                        OFFSET	 0.00	0.00	 0.75000010571191
                    }
                }
			}
		}
	}
	JOINT RightUpLeg
	{
		OFFSET	 -1.2719393604653	 0.00	 0.00
		CHANNELS 3 Zrotation Xrotation Yrotation
		JOINT RightLowLeg
		{
			OFFSET	 0.00	-4.3429100912261	 0.00
			CHANNELS 3 Zrotation Xrotation Yrotation
			JOINT RightFoot
			{
				OFFSET	 0.00	-4.48767017425826	 0.00
				CHANNELS 3 Zrotation Xrotation Yrotation
				JOINT RightToeBase
                {
                    OFFSET	 0.00	0.00	 1.51507020887566
                    CHANNELS 3 Zrotation Xrotation Yrotation
                    End Site 
                    {
                        OFFSET	 0.00	0.00	 0.749999965609858
                    }
                }   
			}
		}
	}
}
MOTION 
Frames:	8 
Frame Time: 0.02 
 0.25783500671386717 5.420980224609375 9.353889770507813 -157.599 81.4057 870.887 4.11832 -6.91694 1.41952 2.64704 -11.2747 1.73125 -50.1594 59.8732 406.726 76.8546 -63.5255 -289.565 -113.1808 -7.29269 -8.98086 10.4979 13.9783 -29.097 0.0 7.38492 0.0 58.1004 9.08599 11.5233 0.0 0.0 0.0 0.0 0.0 0.0 109.2336 -4.10126 7.54929 -7.38081 3.52145 43.9387 0.0 17.4119 0.0 -39.8502 -2.76139 -42.2473 0.0 0.0 0.0 0.0 0.0 0.0 2.6243 -6.19473 1.09084 0.0 6.65422 0.0 -16.2533 -1.0377998 14.2205 0.0 -29.9678 0.0 8.28299 -6.21994 3.14885 0.0 8.07374 0.0 9.7672 6.86075 -16.5834 0.0 -34.4761 0.0 
  0.25736700057983397 5.42010986328125 9.35406005859375 -157.641 81.3949 871.008 4.16795 -6.93565 1.44053 2.55292 -11.2286 1.74475 -50.3978 59.357 407.318 76.9929 -63.5717 -289.29 -113.1182 -7.33456 -8.9322 10.4514 14.1819 -28.1602 0.0 7.18667 0.0 58.5538 9.9313 11.4487 0.0 0.0 0.0 0.0 0.0 0.0 109.2569 -4.09683 7.47041 -7.4353 3.56114 43.713 0.0 17.3987 0.0 -39.6164 -3.2184 -43.6749 0.0 0.0 0.0 0.0 0.0 0.0 2.61912 -6.20366 1.0323 0.0 6.63085 0.0 -16.2665 -1.0179996 14.2026 0.0 -29.9497 0.0 8.28006 -6.22061 3.16969 0.0 8.06569 0.0 9.78565 6.84058 -16.6498 0.0 -34.4553 0.0 
  0.2566659927368164 5.419660034179688 9.35427001953125 -157.722 81.3859 871.168 4.19797 -6.96237 1.4679 2.4951 -11.1616 1.76695 -50.5645 58.9687 407.682 77.103 -63.6929 -289.15 -113.0756 -7.33769 -8.88122 10.4302 14.4026 -27.4316 0.0 6.91235 0.0 58.7903 10.719 11.3605 0.0 0.0 0.0 0.0 0.0 0.0 109.241 -4.02758 7.39487 -7.46787 3.52147 43.4419 0.0 17.3684 0.0 -39.3087 -3.61392 -44.201 0.0 0.0 0.0 0.0 0.0 0.0 2.61129 -6.2241 1.00681 0.0 6.61914 0.0 -16.2603 -0.9772997 14.1623 0.0 -29.934101 0.0 8.27366 -6.23792 3.17916 0.0 8.079 0.0 9.80545 6.81199 -16.7087 0.0 -34.394302 0.0 
  0.2559079933166504 5.419580078125 9.354400024414062 -157.699 81.3913 871.239 4.2205 -6.95633 1.47958 2.46054 -11.1198 1.77438 -50.7059 58.6987 407.899 77.1961 -63.8547 -289.016 -112.9937 -7.3304 -8.95962 10.2851 14.5564 -26.8008 0.0 6.8029 0.0 58.8161 11.3659 11.5459 0.0 0.0 0.0 0.0 0.0 0.0 109.2297 -4.00574 7.29766 -7.47909 3.57765 43.1725 0.0 17.3948 0.0 -39.0758 -4.2149 -44.3766 0.0 0.0 0.0 0.0 0.0 0.0 2.60892 -6.23718 0.974284 0.0 6.62424 0.0 -16.255 -0.94120026 14.119 0.0 -29.9706 0.0 8.27412 -6.2368 3.19698 0.0 8.09234 0.0 9.84634 6.78401 -16.7888 0.0 -34.4347 0.0 
  0.2555929946899414 5.41968994140625 9.3543798828125 -157.567 81.4052 871.217 4.24629 -6.92008 1.48564 2.43223 -11.1011 1.77585 -50.7084 58.5583 407.865 77.2186 -64.0213 -288.93 -112.958496 -7.30376 -8.79827 10.2712 14.6412 -26.494 0.0 6.7538 0.0 58.7431 11.5978 11.5671 0.0 0.0 0.0 0.0 0.0 0.0 109.2231 -4.00601 7.32284 -7.47374 3.63072 42.7957 0.0 17.4541 0.0 -38.8676 -4.57766 -45.0951 0.0 0.0 0.0 0.0 0.0 0.0 2.61167 -6.24752 0.935394 0.0 6.64598 0.0 -16.247 -0.91989994 14.0659 0.0 -29.971401 0.0 8.27838 -6.22409 3.18932 0.0 8.10721 0.0 9.8706 6.75945 -16.8623 0.0 -34.4644 0.0 
  0.2551889991760254 5.419730224609375 9.35406982421875 -157.456 81.4194 871.221 4.2249 -6.89257 1.47806 2.47827 -11.076 1.76992 -50.6549 58.5283 407.678 77.1821 -64.2011 -288.913 -112.9477 -7.25659 -8.73802 10.2323 14.6748 -26.1929 0.0 6.78752 0.0 58.4362 11.5642 12.0061 0.0 0.0 0.0 0.0 0.0 0.0 109.1849 -3.99408 7.26972 -7.44127 3.72874 42.6391 0.0 17.5369 0.0 -38.5518 -5.06041 -45.4545 0.0 0.0 0.0 0.0 0.0 0.0 2.60706 -6.25212 0.778363 0.0 6.65401 0.0 -16.2569 -0.9326 14.1039 0.0 -29.9676 0.0 8.28336 -6.2122 3.19996 0.0 8.1278 0.0 9.90926 6.70693 -16.9508 0.0 -34.438 0.0 
  0.2545540046691894 5.419559936523438 9.353989868164062 -157.392 81.44 871.291 4.20778 -6.8635 1.4634 2.45487 -11.0638 1.7581 -50.476 58.5791 407.35 77.238 -64.3225 -288.86 -112.947296 -7.17983 -8.72008 10.2499 14.7239 -26.0917 0.0 6.82736 0.0 58.2084 11.3654 12.37 0.0 0.0 0.0 0.0 0.0 0.0 109.1936 -3.99309 7.20736 -7.37826 3.8032 42.762 0.0 17.6497 0.0 -38.0983 -5.33558 -46.0067 0.0 0.0 0.0 0.0 0.0 0.0 2.59836 -6.27933 0.752382 0.0 6.70276 0.0 -16.2422 -0.9008999 14.0214 0.0 -29.9848 0.0 8.27721 -6.20058 3.1903 0.0 8.16172 0.0 9.93163 6.63879 -17.0242 0.0 -34.327698 0.0 
  0.25376899719238283 5.419580078125 9.353740234375 -157.295 81.4657 871.319 4.20338 -6.80102 1.46171 2.41649 -11.1003 1.75911 -50.2584 58.6579 406.976 77.2335 -64.4257 -288.955 -112.9181 -7.09036 -8.65762 10.2344 14.7408 -26.0292 0.0 6.87959 0.0 58.1882 11.0961 12.4961 0.0 0.0 0.0 0.0 0.0 0.0 109.1948 -3.97446 7.166 -7.30534 3.84334 42.618 0.0 17.7027 0.0 -38.009 -5.64487 -46.3415 0.0 0.0 0.0 0.0 0.0 0.0 2.59282 -6.29431 0.703275 0.0 6.74394 0.0 -16.2488 -0.88309956 13.9604 0.0 -30.0091 0.0 8.27705 -6.18515 3.19373 0.0 8.19122 0.0 9.98963 6.5734596 -17.1189 0.0 -34.327 0.0 
